<mxfile host="app.diagrams.net" modified="2024-05-20T22:31:17.291Z" agent="Mozilla/5.0 (Windows NT 10.0; Win64; x64) AppleWebKit/537.36 (KHTML, like Gecko) Chrome/124.0.0.0 Safari/537.36" etag="WQ-qsx9LZve_pe3m_TwH" version="24.4.4" type="device">
  <diagram name="Page-1" id="13e1069c-82ec-6db2-03f1-153e76fe0fe0">
    <mxGraphModel dx="1615" dy="815" grid="1" gridSize="10" guides="1" tooltips="1" connect="1" arrows="1" fold="1" page="1" pageScale="1" pageWidth="1169" pageHeight="827" background="none" math="0" shadow="0">
      <root>
        <mxCell id="0" />
        <mxCell id="1" parent="0" />
        <mxCell id="u6g3GPGSTAlDx5Ec5UkV-18" value="" style="shape=umlLifeline;perimeter=lifelinePerimeter;whiteSpace=wrap;html=1;container=1;dropTarget=0;collapsible=0;recursiveResize=0;outlineConnect=0;portConstraint=eastwest;newEdgeStyle={&quot;curved&quot;:0,&quot;rounded&quot;:0};participant=umlActor;" vertex="1" parent="1">
          <mxGeometry x="105" y="40" width="20" height="690" as="geometry" />
        </mxCell>
        <mxCell id="u6g3GPGSTAlDx5Ec5UkV-17" value="" style="shape=umlLifeline;perimeter=lifelinePerimeter;whiteSpace=wrap;html=1;container=1;dropTarget=0;collapsible=0;recursiveResize=0;outlineConnect=0;portConstraint=eastwest;newEdgeStyle={&quot;curved&quot;:0,&quot;rounded&quot;:0};participant=umlBoundary;" vertex="1" parent="1">
          <mxGeometry x="265" y="55" width="50" height="680" as="geometry" />
        </mxCell>
        <mxCell id="u6g3GPGSTAlDx5Ec5UkV-16" value="" style="shape=umlLifeline;perimeter=lifelinePerimeter;whiteSpace=wrap;html=1;container=1;dropTarget=0;collapsible=0;recursiveResize=0;outlineConnect=0;portConstraint=eastwest;newEdgeStyle={&quot;curved&quot;:0,&quot;rounded&quot;:0};participant=umlBoundary;" vertex="1" parent="1">
          <mxGeometry x="455" y="60" width="50" height="680" as="geometry" />
        </mxCell>
        <mxCell id="u6g3GPGSTAlDx5Ec5UkV-15" value="" style="shape=umlLifeline;perimeter=lifelinePerimeter;whiteSpace=wrap;html=1;container=1;dropTarget=0;collapsible=0;recursiveResize=0;outlineConnect=0;portConstraint=eastwest;newEdgeStyle={&quot;curved&quot;:0,&quot;rounded&quot;:0};participant=umlControl;" vertex="1" parent="1">
          <mxGeometry x="645" y="60" width="40" height="670" as="geometry" />
        </mxCell>
        <mxCell id="u6g3GPGSTAlDx5Ec5UkV-14" value="" style="shape=umlLifeline;perimeter=lifelinePerimeter;whiteSpace=wrap;html=1;container=1;dropTarget=0;collapsible=0;recursiveResize=0;outlineConnect=0;portConstraint=eastwest;newEdgeStyle={&quot;curved&quot;:0,&quot;rounded&quot;:0};participant=umlEntity;" vertex="1" parent="1">
          <mxGeometry x="820" y="50" width="40" height="690" as="geometry" />
        </mxCell>
        <mxCell id="u6g3GPGSTAlDx5Ec5UkV-1" value="customer: Customer" style="shape=umlActor;verticalLabelPosition=bottom;verticalAlign=top;html=1;outlineConnect=0;" vertex="1" parent="1">
          <mxGeometry x="90" y="30" width="50" height="90" as="geometry" />
        </mxCell>
        <mxCell id="u6g3GPGSTAlDx5Ec5UkV-4" value="&lt;font style=&quot;font-size: 21px;&quot;&gt;سبد خرید&lt;/font&gt;" style="shape=umlBoundary;whiteSpace=wrap;html=1;" vertex="1" parent="1">
          <mxGeometry x="240" y="35" width="100" height="80" as="geometry" />
        </mxCell>
        <mxCell id="u6g3GPGSTAlDx5Ec5UkV-5" value="&lt;font style=&quot;font-size: 21px;&quot;&gt;صفحه موقت&lt;/font&gt;" style="shape=umlBoundary;whiteSpace=wrap;html=1;" vertex="1" parent="1">
          <mxGeometry x="430" y="35" width="100" height="80" as="geometry" />
        </mxCell>
        <mxCell id="u6g3GPGSTAlDx5Ec5UkV-6" value="&lt;font style=&quot;font-size: 26px;&quot;&gt;خرید&lt;/font&gt;" style="ellipse;shape=umlControl;whiteSpace=wrap;html=1;fontSize=17;" vertex="1" parent="1">
          <mxGeometry x="620" y="25" width="90" height="90" as="geometry" />
        </mxCell>
        <mxCell id="u6g3GPGSTAlDx5Ec5UkV-7" value="سفارش" style="ellipse;shape=umlEntity;whiteSpace=wrap;html=1;fontSize=17;" vertex="1" parent="1">
          <mxGeometry x="800" y="35" width="80" height="80" as="geometry" />
        </mxCell>
        <mxCell id="u6g3GPGSTAlDx5Ec5UkV-12" value="" style="shape=umlLifeline;perimeter=lifelinePerimeter;whiteSpace=wrap;html=1;container=1;dropTarget=0;collapsible=0;recursiveResize=0;outlineConnect=0;portConstraint=eastwest;newEdgeStyle={&quot;curved&quot;:0,&quot;rounded&quot;:0};participant=umlEntity;" vertex="1" parent="1">
          <mxGeometry x="990" y="70" width="40" height="670" as="geometry" />
        </mxCell>
        <mxCell id="u6g3GPGSTAlDx5Ec5UkV-8" value="کوپن" style="ellipse;shape=umlEntity;whiteSpace=wrap;html=1;fontSize=17;" vertex="1" parent="1">
          <mxGeometry x="970" y="35" width="80" height="80" as="geometry" />
        </mxCell>
        <mxCell id="u6g3GPGSTAlDx5Ec5UkV-27" style="edgeStyle=orthogonalEdgeStyle;rounded=0;orthogonalLoop=1;jettySize=auto;html=1;" edge="1" parent="1">
          <mxGeometry relative="1" as="geometry">
            <mxPoint x="260" y="210" as="targetPoint" />
            <mxPoint x="140" y="210" as="sourcePoint" />
          </mxGeometry>
        </mxCell>
        <mxCell id="u6g3GPGSTAlDx5Ec5UkV-28" value="نمایش سبد خرید" style="edgeLabel;html=1;align=center;verticalAlign=middle;resizable=0;points=[];fontSize=18;" vertex="1" connectable="0" parent="u6g3GPGSTAlDx5Ec5UkV-27">
          <mxGeometry x="0.1589" y="2" relative="1" as="geometry">
            <mxPoint y="-23" as="offset" />
          </mxGeometry>
        </mxCell>
        <mxCell id="u6g3GPGSTAlDx5Ec5UkV-21" value="" style="rounded=0;whiteSpace=wrap;html=1;" vertex="1" parent="1">
          <mxGeometry x="105" y="170" width="20" height="530" as="geometry" />
        </mxCell>
        <mxCell id="u6g3GPGSTAlDx5Ec5UkV-22" value="" style="ellipse;fillColor=strokeColor;html=1;" vertex="1" parent="1">
          <mxGeometry x="10" y="170" width="30" height="30" as="geometry" />
        </mxCell>
        <mxCell id="u6g3GPGSTAlDx5Ec5UkV-24" style="edgeStyle=orthogonalEdgeStyle;rounded=0;orthogonalLoop=1;jettySize=auto;html=1;" edge="1" parent="1" source="u6g3GPGSTAlDx5Ec5UkV-22">
          <mxGeometry relative="1" as="geometry">
            <mxPoint x="100" y="185" as="targetPoint" />
          </mxGeometry>
        </mxCell>
        <mxCell id="u6g3GPGSTAlDx5Ec5UkV-25" value="اتمام خرید" style="edgeLabel;html=1;align=center;verticalAlign=middle;resizable=0;points=[];fontSize=18;" vertex="1" connectable="0" parent="u6g3GPGSTAlDx5Ec5UkV-24">
          <mxGeometry x="0.2254" y="3" relative="1" as="geometry">
            <mxPoint x="-8" y="-22" as="offset" />
          </mxGeometry>
        </mxCell>
        <mxCell id="u6g3GPGSTAlDx5Ec5UkV-26" value="" style="rounded=0;whiteSpace=wrap;html=1;" vertex="1" parent="1">
          <mxGeometry x="280" y="200" width="20" height="360" as="geometry" />
        </mxCell>
        <mxCell id="u6g3GPGSTAlDx5Ec5UkV-29" style="edgeStyle=orthogonalEdgeStyle;rounded=0;orthogonalLoop=1;jettySize=auto;html=1;startArrow=classic;startFill=1;endArrow=none;endFill=0;dashed=1;" edge="1" parent="1">
          <mxGeometry relative="1" as="geometry">
            <mxPoint x="265" y="260" as="targetPoint" />
            <mxPoint x="145" y="260" as="sourcePoint" />
          </mxGeometry>
        </mxCell>
        <mxCell id="u6g3GPGSTAlDx5Ec5UkV-30" value="نمایش سبد خرید" style="edgeLabel;html=1;align=center;verticalAlign=middle;resizable=0;points=[];fontSize=18;" vertex="1" connectable="0" parent="u6g3GPGSTAlDx5Ec5UkV-29">
          <mxGeometry x="0.1589" y="2" relative="1" as="geometry">
            <mxPoint x="-4" y="-23" as="offset" />
          </mxGeometry>
        </mxCell>
        <mxCell id="u6g3GPGSTAlDx5Ec5UkV-31" value="" style="rounded=0;whiteSpace=wrap;html=1;" vertex="1" parent="1">
          <mxGeometry x="655" y="260" width="20" height="320" as="geometry" />
        </mxCell>
        <mxCell id="u6g3GPGSTAlDx5Ec5UkV-32" style="edgeStyle=orthogonalEdgeStyle;rounded=0;orthogonalLoop=1;jettySize=auto;html=1;endArrow=classic;endFill=1;" edge="1" parent="1">
          <mxGeometry relative="1" as="geometry">
            <mxPoint x="640" y="310" as="targetPoint" />
            <mxPoint x="310" y="310" as="sourcePoint" />
          </mxGeometry>
        </mxCell>
        <mxCell id="u6g3GPGSTAlDx5Ec5UkV-33" value="درخواست محاسبه قیمت کل" style="edgeLabel;html=1;align=center;verticalAlign=middle;resizable=0;points=[];fontSize=18;" vertex="1" connectable="0" parent="u6g3GPGSTAlDx5Ec5UkV-32">
          <mxGeometry x="0.1589" y="2" relative="1" as="geometry">
            <mxPoint x="-111" y="-18" as="offset" />
          </mxGeometry>
        </mxCell>
        <mxCell id="u6g3GPGSTAlDx5Ec5UkV-34" value="" style="rounded=0;whiteSpace=wrap;html=1;" vertex="1" parent="1">
          <mxGeometry x="1000" y="290" width="20" height="90" as="geometry" />
        </mxCell>
        <mxCell id="u6g3GPGSTAlDx5Ec5UkV-35" style="edgeStyle=orthogonalEdgeStyle;rounded=0;orthogonalLoop=1;jettySize=auto;html=1;dashed=1;dashPattern=12 12;" edge="1" parent="1">
          <mxGeometry relative="1" as="geometry">
            <mxPoint x="690" y="340" as="targetPoint" />
            <mxPoint x="980" y="340" as="sourcePoint" />
          </mxGeometry>
        </mxCell>
        <mxCell id="u6g3GPGSTAlDx5Ec5UkV-36" value="اطلاعات کوپن" style="edgeLabel;html=1;align=center;verticalAlign=middle;resizable=0;points=[];fontSize=18;" vertex="1" connectable="0" parent="u6g3GPGSTAlDx5Ec5UkV-35">
          <mxGeometry x="0.1589" y="2" relative="1" as="geometry">
            <mxPoint y="-23" as="offset" />
          </mxGeometry>
        </mxCell>
        <mxCell id="u6g3GPGSTAlDx5Ec5UkV-39" value="" style="curved=1;endArrow=none;html=1;rounded=0;startArrow=classic;startFill=1;endFill=0;" edge="1" parent="1">
          <mxGeometry width="50" height="50" relative="1" as="geometry">
            <mxPoint x="685" y="414" as="sourcePoint" />
            <mxPoint x="685" y="364" as="targetPoint" />
            <Array as="points">
              <mxPoint x="745" y="414" />
              <mxPoint x="725" y="364" />
              <mxPoint x="695" y="364" />
            </Array>
          </mxGeometry>
        </mxCell>
        <mxCell id="u6g3GPGSTAlDx5Ec5UkV-40" value="پردازش" style="edgeLabel;html=1;align=center;verticalAlign=middle;resizable=0;points=[];fontSize=17;" vertex="1" connectable="0" parent="u6g3GPGSTAlDx5Ec5UkV-39">
          <mxGeometry x="-0.4488" y="9" relative="1" as="geometry">
            <mxPoint x="33" y="-15" as="offset" />
          </mxGeometry>
        </mxCell>
        <mxCell id="u6g3GPGSTAlDx5Ec5UkV-43" style="edgeStyle=orthogonalEdgeStyle;rounded=0;orthogonalLoop=1;jettySize=auto;html=1;startArrow=classic;startFill=1;endArrow=none;endFill=0;dashed=1;" edge="1" parent="1">
          <mxGeometry relative="1" as="geometry">
            <mxPoint x="640" y="450" as="targetPoint" />
            <mxPoint x="315" y="450" as="sourcePoint" />
          </mxGeometry>
        </mxCell>
        <mxCell id="u6g3GPGSTAlDx5Ec5UkV-44" value="&amp;lt;&amp;lt;return&amp;gt;&amp;gt;" style="edgeLabel;html=1;align=center;verticalAlign=middle;resizable=0;points=[];fontSize=18;" vertex="1" connectable="0" parent="u6g3GPGSTAlDx5Ec5UkV-43">
          <mxGeometry x="0.1589" y="2" relative="1" as="geometry">
            <mxPoint x="36" y="-17" as="offset" />
          </mxGeometry>
        </mxCell>
        <mxCell id="u6g3GPGSTAlDx5Ec5UkV-45" style="edgeStyle=orthogonalEdgeStyle;rounded=0;orthogonalLoop=1;jettySize=auto;html=1;startArrow=classic;startFill=1;endArrow=none;endFill=0;dashed=1;" edge="1" parent="1">
          <mxGeometry relative="1" as="geometry">
            <mxPoint x="265" y="450" as="targetPoint" />
            <mxPoint x="145" y="450" as="sourcePoint" />
          </mxGeometry>
        </mxCell>
        <mxCell id="u6g3GPGSTAlDx5Ec5UkV-46" value="مشاهده قیمت کل" style="edgeLabel;html=1;align=center;verticalAlign=middle;resizable=0;points=[];fontSize=18;" vertex="1" connectable="0" parent="u6g3GPGSTAlDx5Ec5UkV-45">
          <mxGeometry x="0.1589" y="2" relative="1" as="geometry">
            <mxPoint x="-4" y="-23" as="offset" />
          </mxGeometry>
        </mxCell>
        <mxCell id="u6g3GPGSTAlDx5Ec5UkV-47" value="" style="rounded=0;whiteSpace=wrap;html=1;" vertex="1" parent="1">
          <mxGeometry x="470" y="560" width="20" height="140" as="geometry" />
        </mxCell>
        <mxCell id="u6g3GPGSTAlDx5Ec5UkV-48" style="edgeStyle=orthogonalEdgeStyle;rounded=0;orthogonalLoop=1;jettySize=auto;html=1;" edge="1" parent="1">
          <mxGeometry relative="1" as="geometry">
            <mxPoint x="260" y="520" as="targetPoint" />
            <mxPoint x="140" y="520" as="sourcePoint" />
          </mxGeometry>
        </mxCell>
        <mxCell id="u6g3GPGSTAlDx5Ec5UkV-49" value="نهایی کردن سفارش" style="edgeLabel;html=1;align=center;verticalAlign=middle;resizable=0;points=[];fontSize=18;" vertex="1" connectable="0" parent="u6g3GPGSTAlDx5Ec5UkV-48">
          <mxGeometry x="0.1589" y="2" relative="1" as="geometry">
            <mxPoint y="-23" as="offset" />
          </mxGeometry>
        </mxCell>
        <mxCell id="u6g3GPGSTAlDx5Ec5UkV-50" style="edgeStyle=orthogonalEdgeStyle;rounded=0;orthogonalLoop=1;jettySize=auto;html=1;" edge="1" parent="1">
          <mxGeometry relative="1" as="geometry">
            <mxPoint x="640" y="520" as="targetPoint" />
            <mxPoint x="310" y="520" as="sourcePoint" />
          </mxGeometry>
        </mxCell>
        <mxCell id="u6g3GPGSTAlDx5Ec5UkV-52" style="edgeStyle=orthogonalEdgeStyle;rounded=0;orthogonalLoop=1;jettySize=auto;html=1;" edge="1" parent="1">
          <mxGeometry relative="1" as="geometry">
            <mxPoint x="510" y="570" as="targetPoint" />
            <mxPoint x="645" y="570" as="sourcePoint" />
          </mxGeometry>
        </mxCell>
        <mxCell id="u6g3GPGSTAlDx5Ec5UkV-53" value="بارگذاری فصحه موقت" style="edgeLabel;html=1;align=center;verticalAlign=middle;resizable=0;points=[];fontSize=18;" vertex="1" connectable="0" parent="u6g3GPGSTAlDx5Ec5UkV-52">
          <mxGeometry x="-0.0908" y="3" relative="1" as="geometry">
            <mxPoint x="1" y="17" as="offset" />
          </mxGeometry>
        </mxCell>
        <mxCell id="u6g3GPGSTAlDx5Ec5UkV-54" value="" style="rounded=0;whiteSpace=wrap;html=1;" vertex="1" parent="1">
          <mxGeometry x="830" y="540" width="20" height="150" as="geometry" />
        </mxCell>
        <mxCell id="u6g3GPGSTAlDx5Ec5UkV-55" style="edgeStyle=orthogonalEdgeStyle;rounded=0;orthogonalLoop=1;jettySize=auto;html=1;dashed=1;dashPattern=12 12;" edge="1" parent="1">
          <mxGeometry relative="1" as="geometry">
            <mxPoint x="810" y="550" as="targetPoint" />
            <mxPoint x="685" y="550" as="sourcePoint" />
          </mxGeometry>
        </mxCell>
        <mxCell id="u6g3GPGSTAlDx5Ec5UkV-56" value="ثبت سفارش در پایگاه داده" style="edgeLabel;html=1;align=center;verticalAlign=middle;resizable=0;points=[];fontSize=18;" vertex="1" connectable="0" parent="u6g3GPGSTAlDx5Ec5UkV-55">
          <mxGeometry x="0.1589" y="2" relative="1" as="geometry">
            <mxPoint y="-23" as="offset" />
          </mxGeometry>
        </mxCell>
        <mxCell id="u6g3GPGSTAlDx5Ec5UkV-58" value="" style="shape=mxgraph.sysml.x;" vertex="1" parent="1">
          <mxGeometry x="645" y="690" width="40" height="40" as="geometry" />
        </mxCell>
        <mxCell id="u6g3GPGSTAlDx5Ec5UkV-59" value="" style="shape=mxgraph.sysml.x;" vertex="1" parent="1">
          <mxGeometry x="270" y="570" width="40" height="40" as="geometry" />
        </mxCell>
        <mxCell id="u6g3GPGSTAlDx5Ec5UkV-60" value="&lt;font style=&quot;font-size: 35px;&quot;&gt;تکمیل فرایند خرید&lt;/font&gt;" style="shape=note2;boundedLbl=1;whiteSpace=wrap;html=1;size=25;verticalAlign=top;align=center;" vertex="1" parent="1">
          <mxGeometry x="125" y="730" width="925" height="90" as="geometry" />
        </mxCell>
      </root>
    </mxGraphModel>
  </diagram>
</mxfile>
